HIERARCHY
ROOT Hips
{
 OFFSET 0.000000 0.000000 0.000000
 CHANNELS 6 Xposition Yposition Zposition Yrotation Xrotation Zrotation
 JOINT Chest
 {
  OFFSET 0.000000 9.585900 0.002600
  CHANNELS 3 Yrotation Xrotation Zrotation
  JOINT Chest2
  {
   OFFSET 0.000000 9.601200 -0.005300
   CHANNELS 3 Yrotation Xrotation Zrotation
   JOINT Chest3
   {
    OFFSET 0.000000 9.561800 0.000000
    CHANNELS 3 Yrotation Xrotation Zrotation
    JOINT Chest4
    {
     OFFSET 0.000000 9.552100 0.000000
     CHANNELS 3 Yrotation Xrotation Zrotation
     JOINT Neck
     {
      OFFSET 0.000000 14.453000 0.000000
      CHANNELS 3 Yrotation Xrotation Zrotation
      JOINT Head
      {
       OFFSET 0.000000 8.936500 -0.011300
       CHANNELS 3 Yrotation Xrotation Zrotation
       End Site
       {
        OFFSET 0.000000 17.073600 -0.006000
       }
      }
     }
     JOINT RightCollar
     {
      OFFSET -2.921100 9.558500 0.000000
      CHANNELS 3 Yrotation Xrotation Zrotation
      JOINT RightShoulder
      {
       OFFSET -13.519700 0.000000 0.000000
       CHANNELS 3 Yrotation Xrotation Zrotation
       JOINT RightElbow
       {
        OFFSET 0.000000 -29.696600 0.000000
        CHANNELS 3 Yrotation Xrotation Zrotation
        JOINT RightWrist
        {
         OFFSET 0.000000 -24.004700 0.000000
         CHANNELS 3 Yrotation Xrotation Zrotation
         End Site
         {
          OFFSET 0.000000 -17.728500 0.000000
         }
        }
       }
      }
     }
     JOINT LeftCollar
     {
      OFFSET 2.921100 9.558500 0.000000
      CHANNELS 3 Yrotation Xrotation Zrotation
      JOINT LeftShoulder
      {
       OFFSET 13.519700 0.000000 0.000000
       CHANNELS 3 Yrotation Xrotation Zrotation
       JOINT LeftElbow
       {
        OFFSET 0.000000 -29.696600 0.000000
        CHANNELS 3 Yrotation Xrotation Zrotation
        JOINT LeftWrist
        {
         OFFSET 0.000000 -24.004700 0.000000
         CHANNELS 3 Yrotation Xrotation Zrotation
         End Site
         {
          OFFSET 0.000000 -17.728500 0.000000
         }
        }
       }
      }
     }
    }
   }
  }
 }
 JOINT RightHip
 {
  OFFSET -7.771700 -0.012900 -0.001300
  CHANNELS 3 Yrotation Xrotation Zrotation
  JOINT RightKnee
  {
   OFFSET 0.000000 -40.869800 0.001200
   CHANNELS 3 Yrotation Xrotation Zrotation
   JOINT RightAnkle
   {
    OFFSET 0.000000 -39.717900 0.002100
    CHANNELS 3 Yrotation Xrotation Zrotation
    JOINT RightToe
    {
     OFFSET 0.000000 -4.965400 11.033500
     CHANNELS 3 Yrotation Xrotation Zrotation
     End Site
     {
      OFFSET 0.000000 -1.423100 5.872300
     }
    }
   }
  }
 }
 JOINT LeftHip
 {
  OFFSET 7.771700 -0.012900 -0.001300
  CHANNELS 3 Yrotation Xrotation Zrotation
  JOINT LeftKnee
  {
   OFFSET 0.000000 -40.869800 0.001200
   CHANNELS 3 Yrotation Xrotation Zrotation
   JOINT LeftAnkle
   {
    OFFSET 0.000000 -39.717900 0.002100
    CHANNELS 3 Yrotation Xrotation Zrotation
    JOINT LeftToe
    {
     OFFSET 0.000000 -4.965400 11.033500
     CHANNELS 3 Yrotation Xrotation Zrotation
     End Site
     {
      OFFSET 0.000000 -1.423100 5.872300
     }
    }
   }
  }
 }
}
MOTION
Frames: 7
Frame Time: 0.008333
0.000000 85.388000 0.000000 0.000000 -5.767877 0.000000 0.000000 11.653817 0.000000 0.000000 -5.885947 0.000000 0.000000 -0.000000 0.000000 0.000000 -0.000000 0.000000 0.000000 12.528835 0.000000 0.000000 0.711642 0.000000 0.000000 -0.000000 0.000000 0.000000 0.000000 -90.000000 0.000000 -2.309062 0.000000 0.000000 2.309062 0.000000 0.000000 -0.000000 0.000000 0.000000 -0.000000 90.000000 0.000000 -2.309062 0.000000 0.000000 2.309062 0.000000 0.000000 8.520406 0.000000 0.000000 1.905762 0.000000 -0.000000 -4.658285 0.000000 0.000000 -0.000000 0.000000 0.000000 8.520406 0.000000 0.000000 1.905762 0.000000 -0.000000 -4.658285 0.000000 0.000000 -0.000000 0.000000
-9.753134 58.011775 38.375166 171.425210 -43.603746 -1.861634 2.296589 23.742425 3.182547 0.278563 3.651810 0.327946 0.458235 5.866768 0.540903 1.853924 20.019643 2.093063 1.102103 12.788095 -1.415924 2.674009 -11.994634 -3.145509 3.339966 0.945395 0.940614 18.325723 -26.679963 -13.960767 52.328602 -53.569916 -21.266775 11.242624 5.691971 -26.484200 -7.109895 -0.603848 -1.034860 -20.764973 -16.978590 8.981297 -52.100641 -56.885334 29.636256 -27.242255 -0.177475 24.807480 13.083607 -29.081331 3.023595 -8.671686 68.126927 -4.040046 2.079986 3.867966 4.135488 -0.015650 0.111397 -0.004827 -9.132404 -30.507652 0.077851 29.618510 68.039248 26.248213 -21.798871 4.181266 -3.338071 -0.185228 -0.652466 -0.077127
-9.753889 58.011803 38.374819 171.424332 -43.602983 -1.862889 2.298422 23.742488 3.180195 0.279092 3.652032 0.328165 0.459551 5.869955 0.536958 1.856640 20.017661 2.100232 1.103269 12.789097 -1.418872 2.673507 -11.998359 -3.143905 3.344346 0.943373 0.937355 18.315040 -26.681370 -13.950635 52.335843 -53.570296 -21.271573 11.244885 5.689021 -26.483410 -7.108972 -0.604774 -1.036155 -20.760113 -16.982619 8.984456 -52.108134 -56.888415 29.626720 -27.242152 -0.169293 24.814988 13.084242 -29.083578 3.029205 -8.662703 68.128000 -4.038109 2.075579 3.872213 4.142151 -0.016834 0.107512 -0.006162 -9.127777 -30.507292 0.078347 29.616614 68.038066 26.248355 -21.796268 4.178520 -3.337087 -0.177644 -0.651833 -0.077032
-9.753876 58.012047 38.374424 171.423753 -43.603476 -1.869328 2.302053 23.743018 3.185460 0.278195 3.651972 0.326554 0.460102 5.869926 0.537186 1.862706 20.018624 2.099240 1.107215 12.789633 -1.421854 2.684333 -11.995904 -3.151405 3.346046 0.941716 0.941399 18.311980 -26.678703 -13.948713 52.336945 -53.572561 -21.280618 11.243854 5.687607 -26.475999 -7.111729 -0.604130 -1.034371 -20.759629 -16.983376 8.995580 -52.111457 -56.896816 29.618614 -27.241879 -0.162869 24.820516 13.083827 -29.083757 3.042380 -8.667588 68.125945 -4.049497 2.074316 3.872434 4.146020 -0.018814 0.108089 -0.003628 -9.128181 -30.505848 0.090918 29.609333 68.041165 26.239226 -21.805683 4.176023 -3.336915 -0.175276 -0.652717 -0.075095
-9.753998 58.012345 38.373983 171.420481 -43.604163 -1.873170 2.306515 23.743529 3.189101 0.274321 3.652196 0.326986 0.463806 5.869441 0.537671 1.864486 20.018983 2.099948 1.107784 12.789656 -1.423550 2.692063 -11.994271 -3.155275 3.349959 0.945564 0.939303 18.312319 -26.681470 -13.942419 52.342026 -53.569424 -21.295192 11.241180 5.688829 -26.470372 -7.113060 -0.600368 -1.038233 -20.744257 -16.987715 9.001075 -52.131073 -56.897351 29.617285 -27.225243 -0.161419 24.836898 13.084169 -29.083826 3.057367 -8.672667 68.123715 -4.064759 2.071555 3.871860 4.149510 -0.019258 0.109882 -0.000494 -9.129838 -30.504083 0.099782 29.618416 68.041426 26.245263 -21.808367 4.171483 -3.333264 -0.184363 -0.652394 -0.077368
-9.754522 58.012498 38.373728 171.409952 -43.602946 -1.869540 2.302273 23.744082 3.186441 0.283289 3.651166 0.327501 0.465455 5.868312 0.537379 1.861549 20.017567 2.098153 1.111033 12.792760 -1.422907 2.696452 -11.994316 -3.157796 3.358081 0.951391 0.941539 18.312293 -26.682534 -13.943180 52.347528 -53.569950 -21.302938 11.237525 5.691308 -26.469811 -7.109414 -0.598344 -1.038421 -20.740589 -16.991248 8.998928 -52.158599 -56.901507 29.606467 -27.210451 -0.143311 24.869000 13.093161 -29.086480 3.063083 -8.684659 68.122720 -4.078423 2.073379 3.872953 4.149995 -0.018460 0.110346 0.000667 -9.125082 -30.503211 0.106548 29.624368 68.039900 26.250477 -21.824039 4.163056 -3.335443 -0.182215 -0.649046 -0.077359
-9.753963 58.012970 38.373437 171.399677 -43.603430 -1.871973 2.308236 23.744136 3.196101 0.283213 3.652519 0.325337 0.460092 5.868791 0.536921 1.852582 20.017359 2.104016 1.124871 12.793271 -1.434825 2.709552 -11.991803 -3.169591 3.377242 0.954015 0.932358 18.308609 -26.681330 -13.936942 52.363861 -53.565868 -21.317002 11.231635 5.688966 -26.468468 -7.086809 -0.601985 -1.055692 -20.737305 -16.988892 9.001295 -52.178271 -56.909020 29.605269 -27.208583 -0.133323 24.875739 13.096103 -29.087662 3.076425 -8.683357 68.119971 -4.080180 2.073417 3.875845 4.152068 -0.020067 0.109921 -0.000668 -9.131652 -30.499824 0.125505 29.623294 68.041888 26.242719 -21.832442 4.155372 -3.339888 -0.173236 -0.646526 -0.074728
